<?xml version="1.0" standalone="no"?><!DOCTYPE svg PUBLIC "-//W3C//DTD SVG 1.1//EN" "http://www.w3.org/Graphics/SVG/1.1/DTD/svg11.dtd"><svg t="1713352260788" class="icon" viewBox="0 0 1024 1024" version="1.1" xmlns="http://www.w3.org/2000/svg" p-id="7321" xmlns:xlink="http://www.w3.org/1999/xlink" width="200" height="200"><path d="M647.744 285.696 512 421.504 376.256 285.696 285.696 376.256 421.504 512l-135.744 135.744 90.496 90.496L512 602.496l135.744 135.744 90.496-90.496L602.496 512l135.744-135.744L647.744 285.696zM874.048 149.952c-199.936-199.936-524.16-199.936-724.096 0-199.936 199.936-199.936 524.16 0 724.096 199.936 199.936 524.16 199.936 724.096 0C1073.984 674.112 1073.984 349.888 874.048 149.952zM783.552 783.552c-149.952 149.952-393.088 149.952-543.04 0s-149.952-393.088 0-543.04c149.952-149.952 393.088-149.952 543.04 0C933.504 390.464 933.504 633.536 783.552 783.552z" p-id="7322" fill="#fc2003"></path></svg>