<?xml version="1.0" standalone="no"?><!DOCTYPE svg PUBLIC "-//W3C//DTD SVG 1.1//EN" "http://www.w3.org/Graphics/SVG/1.1/DTD/svg11.dtd"><svg t="1708259096423" class="icon" viewBox="0 0 1024 1024" version="1.1" xmlns="http://www.w3.org/2000/svg" p-id="11068" xmlns:xlink="http://www.w3.org/1999/xlink" width="200" height="200"><path d="M780.5 708.5l19.6 34c1.7 2.9 0.7 6.6-2.2 8.3L552.5 892.6c-2.9 1.7-6.6 0.7-8.3-2.2l-19.7-34" fill="#369BF4" p-id="11069"></path><path d="M792.4 701.7L512.6 863.2c-2.9 1.7-6.6 0.7-8.3-2.2l-48.5-84.1c-1.7-2.9-0.7-6.6 2.2-8.3l279.7-161.5c2.9-1.7 6.6-0.7 8.3 2.2l48.5 84.1c1.8 2.9 0.7 6.6-2.1 8.3z" fill="#43C3FE" p-id="11070"></path><path d="M276 522.3l56.4 97.7c3.8 6.6 8 12.9 12.5 18.7 17.9 23.2 41.1 40.5 66.8 51.5 30.7 13.1 57.4 33.7 77 60.4l215.4-124.4c-13.3-30.3-17.8-63.8-13.8-96.9 3.3-27.8-0.1-56.5-11.2-83.6-2.8-6.9-6.2-13.7-10-20.2l-56.3-97.6" fill="#FFE8E1" p-id="11071"></path><path d="M421.9 463.9L369 372.4l-73.4-127c-5.4-9.3-14-15.5-23.6-18.1s-20.2-1.5-29.5 3.9c-18.5 10.7-24.9 34.6-14.2 53.1l99.4 172.3 50.7 87.9M489.3 425L365.6 210.3l-13.7-23.7c-5.4-9.3-14-15.5-23.6-18.1s-20.2-1.5-29.5 3.9c-18.5 10.7-24.9 34.6-14.2 53.1L422.1 464M565.5 401.3L530 339.8l-12.4-21.5c-5.3-9.3-14-15.5-23.6-18.1-9.6-2.6-20.2-1.5-29.5 3.9-18.5 10.7-24.9 34.6-14.2 53.1l39.1 67.8" fill="#FFE8E1" p-id="11072"></path><path d="M679.2 445.9c-0.8-3.4-2.2-6.8-4.1-10.1l-5.9-10.2-56.4-97.7-15.6-27c-5.3-9.3-14-15.5-23.6-18.1-9.6-2.6-20.2-1.5-29.5 3.9-18.5 10.7-24.9 34.6-14.2 53.1l35.5 61.5M378.6 544.4l-50.8-87.9c-5.4-9.3-14-15.5-23.6-18.1-9.6-2.6-20.2-1.5-29.5 3.9-18.5 10.7-24.9 34.6-14.2 53.1l15.5 26.9 56.4 97.7 5.9 10.2c1.9 3.2 4.1 6.2 6.7 8.6" fill="#FFE8E1" p-id="11073"></path><path d="M450.8 240.5H504.1c8.3 0 15-6.7 15-15s-6.7-15-15-15h-15.8c13.2-16.3 29.3-30.2 47.4-40.9 26.8-15.8 57.5-24.1 88.7-24.1 31.3 0 62 8.3 88.7 24.1 26 15.3 47.8 37.3 62.9 63.4 4.1 7.2 13.3 9.6 20.5 5.5s9.6-13.3 5.5-20.5c-17.7-30.6-43.1-56.3-73.6-74.2-31.4-18.5-67.4-28.3-104-28.3s-72.6 9.8-103.9 28.3c-20.9 12.3-39.4 28.2-54.7 46.8v-18.3c0-8.3-6.7-15-15-15s-15 6.7-15 15v53.2c0 8.3 6.7 15 15 15z" fill="#2042ED" p-id="11074"></path><path d="M813.1 735L801 714c4.4-3 7.6-7.5 8.8-12.6 1.3-5.4 0.4-10.9-2.4-15.6l-48.4-84s0-0.1-0.1-0.1c-2.8-4.8-7.4-8.3-12.8-9.7-5.5-1.5-11.2-0.7-16 2.1l-18.2 10.5c-7.4-23.2-9.8-48.3-6.7-73.4 3.7-30.8-0.5-61.9-11.9-90.2-1.2-4.3-2.9-8.5-5.3-12.7l-5.9-10.2-56.4-97.7-15.5-26.9c-7.1-12.4-18.7-21.4-32.7-25.2-13.9-3.8-28.5-1.8-40.9 5.4-8.7 5-15.7 12.2-20.3 20.9-5.4-4-11.6-7.1-18.3-8.9-13.9-3.8-28.5-1.8-40.9 5.4-7.3 4.2-13.3 9.9-17.9 16.8l-60.6-105.1-13.7-23.7c-7.2-12.4-18.8-21.3-32.7-25-13.9-3.8-28.5-1.8-40.9 5.4-18.8 10.8-28.5 31.3-26.7 51.6-10.3-0.5-20.5 1.9-29.6 7.2-25.7 14.9-34.5 47.9-19.7 73.6l75.2 130.4c-8.1 0.5-16.1 2.9-23.3 7.1-25.7 14.9-34.5 47.9-19.7 73.6l15.5 26.9 56.4 97.7 5.9 10.2 0.1 0.1c2.6 4.4 5.4 8 8.4 11 18.7 23.9 43.6 43 72 55.2 23.3 10 43.9 24.5 60.3 42.6l-15.7 9.1c-10 5.9-13.4 18.8-7.6 28.8l48.5 84.1s0 0.1 0.1 0.1c2.8 4.8 7.4 8.3 12.8 9.7 1.8 0.5 3.6 0.7 5.5 0.7 3.2 0 6.4-0.8 9.4-2.2l12.3 21.2c2.8 4.8 7.4 8.3 12.8 9.7 1.8 0.5 3.6 0.7 5.5 0.7 3.7 0 7.3-1 10.5-2.9l245.5-141.8c9.8-6 13.2-18.9 7.4-28.9z m-395.5-58.6c-24.1-10.3-45.1-26.5-60.9-46.9-4-5.2-7.9-10.9-11.4-17l-56.4-97.7-15.4-26.9c-6.6-11.4-2.7-26 8.7-32.6 5.5-3.2 11.9-4.1 18-2.4 5.4 1.5 10 4.6 13.2 9.1l1.2 2.2 50.7 87.9c2.8 4.8 7.8 7.5 13 7.5 2.5 0 5-0.6 7.4-1.9 0.1-0.1 0.2-0.1 0.3-0.2 7.2-4.1 9.6-13.3 5.5-20.5l-50.8-87.9c-0.6-1-1.2-2-1.9-3l-97.6-169.2c-3.2-5.5-4-11.9-2.3-18.1s5.6-11.3 11.1-14.5c5.5-3.2 11.9-4.1 18-2.4 6.2 1.7 11.3 5.6 14.5 11.1l73.4 127 52.9 91.5c1.4 2.4 3.4 4.3 5.6 5.6 0.2 0.1 0.3 0.2 0.5 0.3 0.1 0.1 0.2 0.1 0.3 0.2 2.1 1 4.4 1.6 6.7 1.6 2.5 0 5.1-0.6 7.5-2 7.2-4.1 9.6-13.3 5.5-20.5L297.6 218c-6.6-11.4-2.7-26 8.7-32.6 5.5-3.2 11.9-4.1 18-2.4 6.2 1.7 11.3 5.6 14.5 11.1l13.7 23.7 123.7 214.7c2.4 4.2 6.6 6.8 11.1 7.4h0.3c0.3 0 0.5 0.1 0.8 0.1h1.4c2.4-0.1 4.9-0.7 7.1-2 7.2-4.1 9.6-13.3 5.5-20.5l-39.1-67.8c-3.2-5.5-4-11.9-2.3-18.1s5.6-11.3 11.1-14.5 11.9-4.1 18-2.4c6.2 1.7 11.4 5.6 14.5 11.1l10.8 18.8c0.5 0.9 0.9 1.8 1.5 2.7l35.5 61.5c2.8 4.9 8.1 7.6 13.4 7.5 2.4 0 4.9-0.7 7.2-2 7.2-4.1 9.6-13.3 5.5-20.5l-36.6-63.4c-2.4-5-2.9-10.7-1.4-16.2 1.7-6.2 5.6-11.3 11.1-14.5s11.9-4.1 18-2.4c6.2 1.7 11.4 5.6 14.5 11.1l15.6 27 56.4 97.7 0.1 0.1c3.4 5.9 6.4 11.8 8.8 17.6 0.2 0.5 0.3 0.9 0.5 1.3 9.5 23.6 13 49.7 9.9 75.4-3.8 31.7-0.4 63.3 10 92.3L492.6 731.3c-20-23.5-45.6-42.4-75-54.9z m55.6 100.7l264.2-152.6 39.6 68.7-3 1.7c-0.4 0.2-0.7 0.3-1 0.5s-0.7 0.4-1 0.6L512.8 845.8l-39.6-68.7z m79.5 98.1l-7.7-13.3 230-132.8 7.6 13.2-229.9 132.9z" fill="#2042ED" p-id="11075"></path><path d="M732.4 697.9c9.7-5.5 12.9-17.8 7.4-27.5-5.6-9.7-17.9-12.9-27.5-7.4s-12.9 17.8-7.4 27.5 17.8 12.9 27.5 7.4z m-10-17.6l0.1 0.2h-0.2l0.1-0.2zM722.4 680.3c-0.1 0 0 0 0 0z" fill="#2042ED" p-id="11076"></path></svg>