<?xml version="1.0" standalone="no"?><!DOCTYPE svg PUBLIC "-//W3C//DTD SVG 1.1//EN" "http://www.w3.org/Graphics/SVG/1.1/DTD/svg11.dtd"><svg t="1708259113132" class="icon" viewBox="0 0 1024 1024" version="1.1" xmlns="http://www.w3.org/2000/svg" p-id="12186" xmlns:xlink="http://www.w3.org/1999/xlink" width="200" height="200"><path d="M554.6 882.7l-19.6 34c-1.7 2.9-5.4 3.9-8.3 2.2L281.2 777.3c-2.9-1.7-3.9-5.4-2.2-8.3l19.6-34" fill="#369BF4" p-id="12187"></path><path d="M566.4 889.6L286.7 728.1c-2.9-1.7-3.9-5.4-2.2-8.3l48.5-84.1c1.7-2.9 5.4-3.9 8.3-2.2L621 795c2.9 1.7 3.9 5.4 2.2 8.3l-48.5 84.1c-1.6 2.9-5.4 3.8-8.3 2.2z" fill="#43C3FE" p-id="12188"></path><path d="M463.6 352.7l-56.4 97.7c-3.8 6.6-7.2 13.4-10 20.2-11.1 27.1-14.5 55.8-11.2 83.6 4 33.1-0.5 66.6-13.8 96.9l215.4 124.3c19.6-26.7 46.3-47.3 77-60.4 25.7-11 48.9-28.3 66.8-51.5 4.6-5.9 8.7-12.2 12.5-18.7l56.4-97.7" fill="#FFE8E1" p-id="12189"></path><path d="M587.1 449.9l52.8-91.5 73.4-127c5.3-9.3 6.4-19.9 3.9-29.5s-8.8-18.3-18.1-23.6c-18.5-10.7-42.4-4.3-53.1 14.2l-99.5 172.3-50.8 87.9" fill="#FFE8E1" p-id="12190"></path><path d="M654.5 488.8l129.1-223.9 13.7-23.7c5.4-9.3 6.4-19.9 3.9-29.5-2.6-9.6-8.8-18.3-18.1-23.6-18.5-10.7-42.4-4.3-53.1 14.2L587.1 450M713.2 542.9l35.5-61.5 12.4-21.5c5.3-9.3 6.4-19.9 3.9-29.5-2.6-9.6-8.8-18.3-18.1-23.6-18.5-10.7-42.4-4.3-53.1 14.2l-39.1 67.8" fill="#FFE8E1" p-id="12191"></path><path d="M731.4 663.7c2.6-2.4 4.8-5.3 6.7-8.6l5.9-10.2 56.4-97.7 15.5-26.9c5.4-9.3 6.4-19.9 3.9-29.5-2.6-9.6-8.8-18.3-18.1-23.6-18.5-10.7-42.4-4.3-53.1 14.2l-35.5 61.5M495.8 452.6l50.8-87.9c5.4-9.3 6.4-19.9 3.9-29.5-2.6-9.6-8.8-18.3-18.1-23.6-18.5-10.7-42.4-4.3-53.1 14.2l-15.6 26.9-56.4 97.7-5.9 10.2c-1.9 3.2-3.3 6.7-4.1 10.1" fill="#FFE8E1" p-id="12192"></path><path d="M367.5 119.3c31.3 0 61.9 8.3 88.7 24.1 18.1 10.7 34.2 24.6 47.4 40.9h-15.8c-8.3 0-15 6.7-15 15s6.7 15 15 15H541.1c8.3 0 15-6.7 15-15V146c0-8.3-6.7-15-15-15s-15 6.7-15 15v18.4c-15.3-18.6-33.8-34.5-54.7-46.8-31.4-18.5-67.3-28.3-103.9-28.3s-72.6 9.8-104 28.3c-30.5 18-55.9 43.6-73.6 74.2-4.1 7.2-1.7 16.3 5.5 20.5 7.2 4.1 16.3 1.7 20.5-5.5 15.1-26.1 36.8-48 62.9-63.4 26.7-15.8 57.4-24.1 88.7-24.1zM834.3 487v-0.1c-3.8-14-12.7-25.6-25.1-32.7-8.9-5.2-18.7-7.5-28.3-7.2 0.8-6.7 0.4-13.6-1.4-20.4v-0.1c-3.8-14-12.7-25.6-25.1-32.7-7.5-4.3-15.6-6.6-23.7-7.1l65.9-114.3 13.7-23.7c7.2-12.3 9.1-26.8 5.4-40.8v-0.1c-3.8-14-12.7-25.6-25.1-32.7-12.4-7.2-26.9-9.1-40.9-5.4-9.3 2.5-17.6 7.3-24.2 13.9-4.7-7.6-11.2-14-18.9-18.4-25.7-14.9-58.7-6-73.6 19.7l-75.3 130.3c-4.5-6.8-10.6-12.6-17.8-16.7-12.4-7.2-26.9-9.1-40.9-5.4-13.9 3.7-25.6 12.6-32.7 25l-14.8 25.6c-0.3 0.4-0.6 0.9-0.9 1.4l-56.4 97.7c-0.9 1.6-1.8 3.1-2.6 4.7l-3.1 5.4c-2.2 3.7-3.9 7.8-5.1 11.9-11.7 28.5-15.9 60-12.2 91.1 3 25.2 0.7 50.3-6.7 73.5l-15.5-8.9c-4.9-2.9-10.6-3.6-16.1-2.2-5.4 1.4-9.9 4.9-12.8 9.7 0 0 0 0.1-0.1 0.1l-48.5 84.1c-2.8 4.9-3.6 10.6-2.1 16 1.3 5 4.4 9.3 8.8 12.2l-12.1 21.1c-5.8 10-2.4 22.9 7.6 28.8 0 0 0.1 0 0.1 0.1L519.3 932c3.3 1.9 6.9 2.8 10.5 2.8 7.2 0 14.3-3.7 18.2-10.4 0 0 0-0.1 0.1-0.1l12.1-21c3 1.5 6.2 2.2 9.4 2.2 7.4 0 14.5-3.8 18.3-10.6l48.4-84c5.8-10 2.4-22.9-7.6-28.8 0 0-0.1 0-0.1-0.1l-18.3-10.5c16.4-18.1 36.9-32.6 60.3-42.6 28.3-12.1 53-31 71.7-54.7 3.4-3.2 6.4-7.1 8.9-11.5l5.9-10.2 56.4-97.7 15.5-26.9c7-12.4 9-26.9 5.3-40.9zM526.5 901.5l-230-132.7 7.7-13.3 230 132.8-7.7 13.2z m39.7-29.3l-2.8-1.6c-0.4-0.3-0.8-0.6-1.3-0.8-0.4-0.2-0.9-0.5-1.3-0.7L301.9 719.6l39.6-68.6 264.2 152.6-39.5 68.6z m92.5-170.9c-29.4 12.5-55 31.4-75 54.9L390.8 644.8c10.4-29 13.9-60.7 10.1-92.4-3-25.4 0.3-51.1 9.5-74.5 0.5-1 0.9-2 1.3-3.1 1.8-4.1 3.8-8.3 6-12.6l2.5-4.4 56.4-97.7 15.6-26.9c3.2-5.5 8.3-9.4 14.5-11.1 6.2-1.7 12.6-0.8 18.2 2.4 5.4 3.1 9.3 8.2 11 14.4 1.5 5.8 0.9 11.8-1.8 17l-0.7 1.3-50.8 87.9c-4.1 7.2-1.7 16.3 5.5 20.5 2.4 1.4 4.9 2 7.5 2 3.8 0 7.4-1.4 10.2-4 0 0 0.1 0 0.1-0.1l0.9-0.9c0.2-0.2 0.4-0.5 0.6-0.7 0 0 0-0.1 0.1-0.1 0.4-0.6 0.9-1.1 1.2-1.8l50.8-87.9c0.3-0.5 0.5-1 0.8-1.4L659 200c6.6-11.4 21.2-15.3 32.7-8.7 5.4 3.1 9.4 8.3 11 14.3 1.5 5.7 0.9 11.5-1.6 16.7l-49.3 85.5-24.8 43-52.8 91.5c-1.3 2.3-2 4.7-2 7.2-0.1 5.3 2.6 10.6 7.5 13.4 7.2 4.1 16.3 1.7 20.5-5.5l77.7-134.7 48.5-84c0.4-0.8 0.8-1.5 1.2-2.3l15.4-26.7c3.2-5.5 8.3-9.4 14.5-11.1 6.2-1.7 12.6-0.8 18.2 2.4 5.4 3.1 9.3 8.2 11 14.4 1.6 6.3 0.8 12.7-2.4 18.1l-13.7 23.7-129.1 224.1c-4.1 7.2-1.7 16.3 5.5 20.5 2.3 1.3 4.8 2 7.3 2h1.2c4.9-0.3 9.6-2.9 12.2-7.5l39.1-67.8c6.6-11.4 21.2-15.3 32.7-8.7 5.4 3.1 9.3 8.2 11 14.4 1.6 6.2 0.7 12.7-2.4 18.2l-11 19.1-1.5 2.4-35.5 61.5c-4.1 7.2-1.7 16.3 5.5 20.5 1.9 1.1 4 1.7 6.2 1.9 0.2 0 0.5 0 0.7 0.1h0.7c5.2 0 10.2-2.7 13-7.5l36.4-63c7-10.2 20.8-13.4 31.7-7.1 5.4 3.1 9.3 8.2 11 14.4 1.6 6.3 0.8 12.7-2.4 18.2l-15 26c-0.2 0.3-0.4 0.5-0.5 0.8l-56.5 97.7c-3.9 6.6-7.6 12.2-11.4 17.1-15.7 20.3-36.7 36.5-60.8 46.8z" fill="#2042ED" p-id="12193"></path><path d="M539.8 835.8c9.7 5.6 21.9 2.3 27.5-7.4 5.5-9.7 2.2-21.9-7.4-27.5-9.6-5.5-21.9-2.3-27.5 7.4s-2.3 21.9 7.4 27.5z m9.9-17.5c0.1-0.1 0.1-0.1 0.2-0.1 0.1 0.1 0 0.2 0 0v0.2l-0.2-0.1z" fill="#2042ED" p-id="12194"></path></svg>